<?xml version="1.0" standalone="no"?>
<!DOCTYPE svg PUBLIC "-//W3C//DTD SVG 20010904//EN"
 "http://www.w3.org/TR/2001/REC-SVG-20010904/DTD/svg10.dtd">
<svg version="1.0" xmlns="http://www.w3.org/2000/svg"
 width="736.000000pt" height="736.000000pt" viewBox="0 0 736.000000 736.000000"
 preserveAspectRatio="xMidYMid meet">
<metadata>
Created by potrace 1.14, written by Peter Selinger 2001-2017
</metadata>
<g transform="translate(0.000000,736.000000) scale(0.100000,-0.100000)"
fill="#000000" stroke="none">
<path d="M3128 7355 c-2 -2 -35 -6 -73 -10 -128 -11 -220 -21 -220 -25 0 -1
-9 -3 -20 -4 -50 -7 -162 -30 -300 -61 -58 -13 -233 -69 -316 -101 -52 -20
-119 -45 -149 -56 -113 -43 -508 -256 -518 -280 -2 -4 -8 -8 -13 -8 -11 0
-164 -108 -234 -164 -298 -242 -554 -520 -739 -805 l-48 -74 174 -174 175
-175 44 74 c24 40 46 75 49 78 3 3 29 40 58 83 29 43 59 85 67 95 53 67 171
208 177 212 4 3 53 50 110 105 225 217 431 365 712 509 66 34 126 64 131 65
16 5 47 17 110 44 57 23 207 75 236 81 8 2 21 6 29 9 8 3 29 9 45 13 17 4 32
8 35 9 4 1 43 9 95 20 31 7 123 26 140 29 11 2 49 7 85 11 36 3 76 8 90 10 14
3 65 7 113 10 49 2 92 7 97 10 5 3 11 2 14 -3 3 -4 30 -5 60 -2 31 3 56 4 56
1 0 -4 42 -6 93 -7 84 -1 138 -5 267 -20 25 -2 52 -7 60 -9 8 -3 33 -7 55 -11
22 -3 69 -12 105 -20 36 -8 76 -17 90 -20 14 -2 84 -23 155 -46 72 -23 132
-42 135 -43 39 -12 242 -103 329 -148 585 -303 1080 -838 1326 -1432 20 -49
41 -99 46 -110 9 -22 58 -170 65 -195 2 -8 15 -58 29 -110 30 -113 33 -125 51
-245 2 -16 6 -41 9 -55 32 -184 37 -559 10 -757 -3 -21 -8 -56 -11 -78 -10
-73 -15 -99 -35 -190 -10 -50 -28 -122 -40 -160 -11 -39 -22 -78 -24 -88 -22
-100 -199 -500 -261 -593 -13 -19 -24 -37 -24 -40 0 -8 -156 -236 -177 -259
-10 -11 -30 -37 -46 -57 -15 -21 -41 -52 -57 -70 -17 -18 -30 -36 -30 -40 0
-8 326 -338 334 -338 4 0 129 150 166 199 14 19 32 41 40 50 17 19 169 244
186 276 6 11 32 58 57 104 26 46 47 87 47 91 0 4 9 19 21 34 11 14 18 26 16
26 -3 0 8 27 23 59 16 33 41 88 55 123 14 35 30 72 35 83 18 40 80 233 109
340 38 143 73 320 86 439 3 21 7 55 10 75 15 100 24 419 13 443 -5 9 -4 20 2
23 6 4 8 10 6 14 -3 4 -7 47 -11 97 -6 88 -11 147 -20 214 -12 84 -18 121 -36
220 -25 129 -27 137 -34 160 -3 10 -8 28 -10 40 -9 47 -89 290 -126 385 -42
104 -203 437 -223 458 -6 7 -20 28 -30 47 -37 67 -164 252 -223 325 -48 60
-105 128 -138 165 -59 65 -276 279 -326 320 -23 19 -47 40 -53 45 -6 6 -32 26
-56 45 -25 19 -46 38 -48 42 -2 4 -8 8 -14 8 -5 0 -16 7 -25 16 -24 23 -269
184 -282 184 -6 0 -11 3 -11 8 0 4 -10 12 -23 18 -12 6 -78 40 -147 76 -108
56 -363 168 -382 168 -4 0 -19 5 -35 12 -15 6 -32 12 -38 14 -5 1 -55 16 -110
33 -116 35 -336 86 -415 96 -30 4 -57 8 -60 10 -3 2 -38 6 -78 10 -39 3 -82 9
-94 12 -25 6 -544 14 -550 8z"/>
<path d="M3327 6534 c-1 -1 -56 -4 -122 -8 -66 -3 -136 -8 -155 -11 -146 -24
-228 -38 -245 -42 -11 -2 -30 -6 -41 -8 -216 -46 -559 -193 -774 -333 -110
-71 -300 -216 -300 -229 0 -11 338 -344 341 -336 4 7 57 48 191 146 20 15 39
27 42 27 3 0 29 15 58 33 103 66 366 179 468 202 8 2 44 11 80 20 36 9 74 18
85 20 11 2 36 6 55 9 153 27 332 35 500 23 87 -6 121 -10 190 -23 14 -2 41 -7
60 -10 19 -3 76 -17 125 -30 50 -14 97 -27 105 -29 112 -29 357 -149 505 -246
61 -40 112 -75 115 -78 3 -3 32 -28 65 -56 118 -97 267 -256 346 -369 19 -27
46 -66 62 -88 15 -21 27 -41 27 -44 0 -3 8 -18 19 -32 26 -37 124 -234 124
-249 0 -7 4 -13 8 -13 3 0 9 -10 12 -22 3 -13 21 -68 40 -124 19 -55 37 -113
40 -130 3 -16 12 -58 21 -93 10 -35 15 -69 12 -76 -2 -7 -2 -16 2 -19 23 -23
35 -390 18 -536 -11 -101 -32 -217 -46 -265 -5 -16 -12 -43 -15 -60 -8 -42 -5
-33 -55 -170 -37 -103 -103 -243 -155 -329 -19 -32 -35 -62 -35 -67 0 -5 -4
-9 -10 -9 -5 0 -10 -7 -10 -15 0 -8 -4 -15 -9 -15 -5 0 -12 -8 -15 -18 -4 -10
-14 -27 -24 -38 -9 -10 -37 -46 -62 -78 -53 -70 -227 -249 -289 -297 -24 -19
-49 -39 -55 -45 -36 -35 -304 -206 -326 -209 -5 0 -120 -56 -130 -63 -2 -1 76
-83 175 -182 l179 -179 60 32 c59 31 306 192 316 206 3 4 14 14 26 22 45 31
143 118 234 211 236 236 405 489 548 821 12 26 18 47 15 47 -3 0 -1 6 5 13 17
20 86 239 101 322 5 28 12 57 15 65 3 8 7 31 10 50 3 19 8 49 11 65 13 77 15
95 22 170 12 154 6 478 -12 555 -4 14 -7 43 -9 65 -2 22 -6 49 -9 60 -3 11 -8
37 -12 59 -3 21 -7 42 -10 46 -2 3 -7 22 -10 41 -18 105 -93 321 -161 464 -21
44 -38 82 -39 85 0 3 -22 43 -49 90 -27 47 -54 94 -60 105 -13 23 -47 75 -59
90 -4 6 -32 44 -63 85 -79 107 -125 160 -248 283 -232 232 -504 416 -801 542
-22 9 -48 21 -57 26 -10 5 -26 9 -36 9 -10 0 -22 4 -27 9 -8 8 -160 58 -199
65 -6 2 -29 8 -51 14 -22 6 -56 14 -75 17 -19 3 -54 10 -78 16 -24 5 -62 12
-85 15 -23 3 -58 7 -77 10 -62 8 -328 23 -333 18z"/>
<path d="M1320 5588 c-14 -16 -35 -42 -48 -56 -98 -113 -227 -294 -319 -447
-50 -83 -203 -378 -205 -395 0 -3 -4 -14 -8 -25 -4 -11 -18 -45 -29 -75 -12
-30 -26 -64 -31 -75 -28 -58 -121 -400 -134 -490 -3 -16 -5 -30 -6 -30 -2 0
-7 -27 -14 -73 -3 -22 -8 -51 -11 -64 -6 -25 -10 -65 -22 -193 -4 -44 -8 -179
-8 -300 1 -198 5 -285 20 -410 3 -22 6 -47 6 -55 3 -37 45 -262 55 -292 3 -11
7 -30 9 -41 10 -61 88 -314 111 -359 8 -16 12 -28 10 -28 -10 0 76 -195 149
-340 59 -119 88 -168 172 -299 70 -108 178 -257 212 -293 9 -9 27 -30 39 -47
57 -74 270 -291 366 -373 22 -18 50 -43 63 -56 13 -12 28 -22 33 -22 4 0 10
-4 12 -8 6 -14 163 -129 279 -205 165 -106 318 -188 493 -264 78 -34 312 -120
349 -129 26 -6 42 -10 167 -42 122 -32 203 -49 260 -56 19 -2 46 -7 60 -10 14
-3 48 -8 75 -11 28 -2 82 -8 120 -12 89 -10 496 -9 595 0 142 14 238 26 260
32 8 3 32 7 54 11 21 3 46 7 55 9 9 2 48 11 86 20 39 9 79 18 90 20 11 3 52
14 90 25 39 12 77 23 85 25 30 7 237 84 305 113 73 32 289 139 340 170 104 61
203 122 219 135 6 4 43 31 81 58 156 112 255 198 410 353 135 136 192 198 245
266 14 18 30 37 35 44 15 16 124 169 172 240 l39 59 -175 173 c-150 149 -177
171 -185 156 -5 -9 -16 -23 -23 -30 -7 -7 -13 -20 -13 -27 0 -7 -6 -20 -12
-27 -13 -13 -88 -124 -98 -143 -3 -6 -12 -19 -22 -30 -9 -11 -54 -67 -100
-125 -83 -105 -223 -251 -332 -345 -32 -27 -63 -55 -69 -60 -79 -71 -344 -250
-453 -305 -38 -19 -71 -38 -74 -41 -19 -21 -406 -175 -489 -194 -9 -3 -41 -11
-71 -20 -30 -8 -68 -17 -85 -20 -16 -3 -46 -10 -65 -15 -37 -10 -154 -30 -207
-35 -17 -2 -49 -6 -70 -10 -43 -6 -240 -17 -318 -17 -63 0 -282 11 -315 17
-14 2 -50 7 -80 10 -30 4 -64 9 -75 11 -31 6 -126 24 -160 30 -16 3 -43 9 -60
14 -16 5 -48 13 -70 19 -22 6 -71 21 -110 33 -38 12 -72 23 -75 23 -3 0 -32
11 -65 24 -267 101 -578 276 -770 432 -197 161 -323 287 -494 494 -165 201
-359 553 -447 815 -14 41 -28 82 -31 90 -3 8 -7 20 -8 25 0 6 -4 17 -8 25 -6
15 -36 127 -43 165 -11 56 -13 66 -18 73 -3 5 -8 33 -11 62 -4 30 -8 57 -10
60 -2 3 -6 33 -10 65 -3 33 -8 76 -11 95 -5 42 -15 214 -15 290 -1 73 10 299
15 330 3 14 7 46 10 72 3 26 8 58 10 70 3 13 8 40 11 62 3 21 7 41 9 45 2 3 7
24 10 46 9 55 64 255 93 335 13 36 25 70 27 75 12 38 107 257 120 275 6 8 20
33 31 55 68 141 246 401 369 539 l26 29 -158 159 c-86 87 -164 163 -172 167
-11 6 -22 0 -40 -21z"/>
<path d="M2582 5565 c-237 -137 -448 -309 -641 -525 -18 -19 -40 -44 -50 -55
-32 -35 -157 -208 -192 -266 -19 -30 -39 -64 -46 -75 -27 -43 -113 -214 -142
-284 -18 -41 -36 -84 -41 -95 -15 -32 -77 -235 -85 -275 -2 -12 -7 -30 -10
-40 -6 -18 -9 -35 -20 -90 -3 -14 -7 -36 -10 -50 -3 -14 -8 -49 -11 -79 -3
-30 -8 -64 -10 -75 -16 -71 -21 -371 -9 -496 11 -120 14 -141 29 -225 27 -152
55 -261 100 -392 54 -157 121 -314 138 -321 4 -2 8 -10 8 -18 0 -13 18 -52 30
-64 3 -3 11 -16 18 -29 8 -13 23 -40 34 -59 20 -37 115 -178 136 -203 6 -8 35
-43 64 -79 192 -238 440 -452 700 -603 75 -43 257 -132 323 -156 33 -13 69
-27 80 -31 44 -19 178 -60 260 -79 95 -23 232 -48 313 -57 37 -4 81 -8 97 -10
39 -5 350 -5 395 0 184 19 193 20 293 40 350 71 661 201 942 393 120 83 235
176 232 190 -2 13 -316 333 -327 333 -7 0 -44 -27 -72 -53 -48 -45 -226 -155
-353 -217 -125 -62 -345 -147 -345 -134 0 2 -8 0 -18 -5 -19 -10 -184 -46
-257 -56 -170 -22 -424 -23 -575 -1 -229 34 -441 102 -650 208 -93 48 -241
140 -304 189 -68 53 -176 149 -239 214 -80 82 -227 265 -227 283 0 6 -3 12 -7
14 -11 4 -63 85 -63 97 0 5 -4 11 -8 13 -12 4 -104 196 -141 293 -31 80 -83
259 -95 325 -3 19 -8 44 -10 55 -34 189 -37 494 -6 655 6 30 13 69 15 85 2 17
7 40 10 53 3 12 7 30 9 40 34 150 105 337 187 490 36 67 137 226 168 264 76
94 131 157 174 200 152 155 369 312 555 403 56 28 102 53 102 57 0 6 -309 318
-341 345 -11 9 -33 0 -107 -42z"/>
</g>
</svg>
