<svg width="12" height="12" viewBox="0 0 12 12" fill="none" xmlns="http://www.w3.org/2000/svg">
<path fill-rule="evenodd" clip-rule="evenodd" d="M0.410704 0.410749C0.736141 0.0853125 1.26378 0.0853125 1.58922 0.410749L5.99996 4.82149L10.4107 0.410749C10.7361 0.0853125 11.2638 0.0853125 11.5892 0.410749C11.9147 0.736186 11.9147 1.26382 11.5892 1.58926L7.17847 6.00001L11.5892 10.4108C11.9147 10.7362 11.9147 11.2638 11.5892 11.5893C11.2638 11.9147 10.7361 11.9147 10.4107 11.5893L5.99996 7.17852L1.58922 11.5893C1.26378 11.9147 0.736141 11.9147 0.410704 11.5893C0.0852667 11.2638 0.0852667 10.7362 0.410704 10.4108L4.82145 6.00001L0.410704 1.58926C0.0852667 1.26382 0.0852667 0.736186 0.410704 0.410749Z" fill="#4D5A73"/>
</svg>
