<svg width="18" height="18" viewBox="0 0 18 18" fill="none" xmlns="http://www.w3.org/2000/svg">
    <path fill-rule="evenodd" clip-rule="evenodd" d="M1.40901 2.90901C1.83097 2.48705 2.40326 2.25 3 2.25H8.25C8.66421 2.25 9 2.58579 9 3C9 3.41422 8.66421 3.75 8.25 3.75H3C2.80109 3.75 2.61032 3.82902 2.46967 3.96967C2.32902 4.11032 2.25 4.30109 2.25 4.5V15C2.25 15.1989 2.32902 15.3897 2.46967 15.5303C2.61032 15.671 2.80109 15.75 3 15.75H13.5C13.6989 15.75 13.8897 15.671 14.0303 15.5303C14.171 15.3897 14.25 15.1989 14.25 15V9.75C14.25 9.33579 14.5858 9 15 9C15.4142 9 15.75 9.33579 15.75 9.75V15C15.75 15.5967 15.5129 16.169 15.091 16.591C14.669 17.0129 14.0967 17.25 13.5 17.25H3C2.40326 17.25 1.83097 17.0129 1.40901 16.591C0.987053 16.169 0.75 15.5967 0.75 15V4.5C0.75 3.90326 0.987053 3.33097 1.40901 2.90901Z" fill="#2693FF"/>
    <path fill-rule="evenodd" clip-rule="evenodd" d="M15 2.15901C14.777 2.15901 14.563 2.24762 14.4053 2.40533L7.42722 9.38344L7.03078 10.9692L8.61656 10.5728L15.5947 3.59467C15.7524 3.43696 15.841 3.22305 15.841 3C15.841 2.77696 15.7524 2.56305 15.5947 2.40533C15.437 2.24762 15.223 2.15901 15 2.15901ZM13.3447 1.34467C13.7837 0.905651 14.3791 0.659012 15 0.659012C15.6209 0.659012 16.2163 0.905651 16.6553 1.34467C17.0944 1.78369 17.341 2.37913 17.341 3C17.341 3.62087 17.0944 4.21631 16.6553 4.65533L9.53033 11.7803C9.43421 11.8765 9.31378 11.9446 9.1819 11.9776L6.1819 12.7276C5.92632 12.7915 5.65596 12.7166 5.46967 12.5303C5.28338 12.344 5.2085 12.0737 5.27239 11.8181L6.02239 8.8181C6.05536 8.68623 6.12355 8.56579 6.21967 8.46967L13.3447 1.34467Z" fill="#2693FF"/>
</svg>