<svg width="36" height="31" viewBox="0 0 36 31" fill="none" xmlns="http://www.w3.org/2000/svg">
    <path fill-rule="evenodd" clip-rule="evenodd" d="M15.7925 1.42471C16.4664 1.04528 17.2267 0.845947 18.0002 0.845947C18.7736 0.845947 19.5339 1.04528 20.2078 1.42471C20.8818 1.80414 21.4465 2.35086 21.8477 3.01212L21.852 3.01924L34.557 24.2293L34.5691 24.25C34.9621 24.9304 35.17 25.7019 35.1722 26.4876C35.1744 27.2734 34.9708 28.046 34.5817 28.7287C34.1926 29.4113 33.6315 29.9802 32.9543 30.3786C32.2771 30.7771 31.5073 30.9913 30.7216 31L30.7052 31.0002L5.27867 31.0001C4.49296 30.9914 3.72322 30.7771 3.04601 30.3786C2.3688 29.9802 1.80773 29.4113 1.41863 28.7287C1.02952 28.046 0.825943 27.2734 0.828143 26.4876C0.830343 25.7019 1.03825 24.9304 1.43117 24.25L1.44335 24.2293L14.1484 3.01926L15.4351 3.79005L14.1527 3.01212C14.5538 2.35086 15.1185 1.80414 15.7925 1.42471ZM16.7195 4.56502L4.02418 25.7588C3.89642 25.9835 3.82886 26.2375 3.82813 26.496C3.8274 26.758 3.89526 27.0155 4.02496 27.243C4.15466 27.4706 4.34169 27.6602 4.56742 27.793C4.79118 27.9247 5.04525 27.996 5.30475 28.0001H30.6956C30.9551 27.996 31.2091 27.9247 31.4329 27.793C31.6586 27.6602 31.8456 27.4706 31.9753 27.243C32.1051 27.0155 32.1729 26.758 32.1722 26.496C32.1715 26.2375 32.1039 25.9836 31.9762 25.7589L19.2827 4.56801L19.2808 4.56502C19.1473 4.34594 18.9597 4.16477 18.7361 4.03887C18.5114 3.91239 18.258 3.84595 18.0002 3.84595C17.7424 3.84595 17.4889 3.91239 17.2643 4.03887C17.0406 4.16477 16.8531 4.34594 16.7195 4.56502Z" fill="#F96969"/>
    <path fill-rule="evenodd" clip-rule="evenodd" d="M18.0002 10.0001C18.8286 10.0001 19.5002 10.6716 19.5002 11.5001V17.5001C19.5002 18.3285 18.8286 19.0001 18.0002 19.0001C17.1717 19.0001 16.5002 18.3285 16.5002 17.5001V11.5001C16.5002 10.6716 17.1717 10.0001 18.0002 10.0001Z" fill="#F96969"/>
    <path fill-rule="evenodd" clip-rule="evenodd" d="M16.5002 23.5001C16.5002 22.6716 17.1717 22.0001 18.0002 22.0001H18.0152C18.8436 22.0001 19.5152 22.6716 19.5152 23.5001C19.5152 24.3285 18.8436 25.0001 18.0152 25.0001H18.0002C17.1717 25.0001 16.5002 24.3285 16.5002 23.5001Z" fill="#F96969"/>
</svg>
