<svg width="17" height="20" viewBox="0 0 17 20" fill="none" xmlns="http://www.w3.org/2000/svg">
<path d="M1 0C0.447715 0 0 0.447716 0 1V19C0 19.5523 0.447715 20 1 20C1.55228 20 2 19.5523 2 19V1C2 0.447715 1.55228 0 1 0Z" fill="#808EA6"/>
<path d="M16 11C16.5523 11 17 10.5523 17 10C17 9.44771 16.5523 9 16 9H6.41421L9.70711 5.70711C10.0976 5.31658 10.0976 4.68342 9.70711 4.29289C9.31658 3.90237 8.68342 3.90237 8.29289 4.29289L3.29289 9.29289C2.90237 9.68342 2.90237 10.3166 3.29289 10.7071L8.29289 15.7071C8.68342 16.0976 9.31658 16.0976 9.70711 15.7071C10.0976 15.3166 10.0976 14.6834 9.70711 14.2929L6.41421 11H16Z" fill="#808EA6"/>
</svg>
