<svg width="17" height="20" viewBox="0 0 17 20" fill="none" xmlns="http://www.w3.org/2000/svg">
<path d="M16 0C15.4477 0 15 0.447716 15 1V19C15 19.5523 15.4477 20 16 20C16.5523 20 17 19.5523 17 19V1C17 0.447715 16.5523 0 16 0Z" fill="#808EA6"/>
<path d="M0 10C0 9.44771 0.447716 9 1 9L10.5858 9L7.29289 5.70711C6.90237 5.31658 6.90237 4.68342 7.29289 4.29289C7.68342 3.90237 8.31658 3.90237 8.70711 4.29289L13.7071 9.29289C14.0976 9.68342 14.0976 10.3166 13.7071 10.7071L8.70711 15.7071C8.31658 16.0976 7.68342 16.0976 7.29289 15.7071C6.90237 15.3166 6.90237 14.6834 7.29289 14.2929L10.5858 11L1 11C0.447716 11 0 10.5523 0 10Z" fill="#808EA6"/>
</svg>
