<svg width="20" height="20" viewBox="0 0 20 20" fill="none" xmlns="http://www.w3.org/2000/svg">
<path fill-rule="evenodd" clip-rule="evenodd" d="M10.4912 1.3685C10.2023 1.14381 9.79774 1.14381 9.50885 1.3685L2.30885 6.9685C2.11398 7.12007 2 7.35311 2 7.59998V16.4C2 17.7255 3.07452 18.8 4.4 18.8H15.6C16.9255 18.8 18 17.7255 18 16.4V7.59998C18 7.35311 17.886 7.12007 17.6912 6.9685L10.4912 1.3685ZM13.2 17.2H15.6C16.0418 17.2 16.4 16.8418 16.4 16.4V7.99125L10 3.01347L3.6 7.99125V16.4C3.6 16.8418 3.95817 17.2 4.4 17.2H6.8V9.99998C6.8 9.55816 7.15817 9.19998 7.6 9.19998H12.4C12.8418 9.19998 13.2 9.55816 13.2 9.99998V17.2ZM8.4 17.2V10.8H11.6V17.2H8.4Z" fill="#37455E"/>
</svg>
