<svg width="18" height="18" viewBox="0 0 18 18" fill="none" xmlns="http://www.w3.org/2000/svg">
    <path fill-rule="evenodd" clip-rule="evenodd" d="M3.16669 2.33329C2.94567 2.33329 2.73371 2.42109 2.57743 2.57737C2.42115 2.73365 2.33335 2.94561 2.33335 3.16663V14.8333C2.33335 15.0543 2.42115 15.2663 2.57743 15.4225C2.73371 15.5788 2.94567 15.6666 3.16669 15.6666H6.50002C6.96026 15.6666 7.33335 16.0397 7.33335 16.5C7.33335 16.9602 6.96026 17.3333 6.50002 17.3333H3.16669C2.50365 17.3333 1.86776 17.0699 1.39892 16.6011C0.930079 16.1322 0.666687 15.4963 0.666687 14.8333V3.16663C0.666687 2.50358 0.930079 1.8677 1.39892 1.39886C1.86776 0.930018 2.50365 0.666626 3.16669 0.666626H6.50002C6.96026 0.666626 7.33335 1.03972 7.33335 1.49996C7.33335 1.9602 6.96026 2.33329 6.50002 2.33329H3.16669ZM11.7441 4.24404C12.0695 3.9186 12.5972 3.9186 12.9226 4.24404L17.0893 8.4107C17.4147 8.73614 17.4147 9.26378 17.0893 9.58922L12.9226 13.7559C12.5972 14.0813 12.0695 14.0813 11.7441 13.7559C11.4187 13.4304 11.4187 12.9028 11.7441 12.5774L14.4882 9.83329H6.50002C6.03978 9.83329 5.66669 9.4602 5.66669 8.99996C5.66669 8.53972 6.03978 8.16663 6.50002 8.16663H14.4882L11.7441 5.42255C11.4187 5.09711 11.4187 4.56947 11.7441 4.24404Z" fill="#808EA6"/>
</svg>