<svg width="17" height="16" viewBox="0 0 17 16" fill="none" xmlns="http://www.w3.org/2000/svg">
    <path fill-rule="evenodd" clip-rule="evenodd" d="M5.50257 0.754525C5.69611 0.643935 5.93211 0.637384 6.13148 0.737069L11.1457 3.24417L15.5026 0.754525C15.7089 0.636619 15.9624 0.637466 16.168 0.756747C16.3735 0.876029 16.5 1.09571 16.5 1.33335V12C16.5 12.2393 16.3718 12.4602 16.1641 12.5788L11.4974 15.2455C11.3039 15.3561 11.0679 15.3627 10.8685 15.263L5.85431 12.7559L1.49743 15.2455C1.29109 15.3634 1.03759 15.3626 0.832049 15.2433C0.626506 15.124 0.5 14.9043 0.5 14.6667V4.00002C0.5 3.76078 0.628191 3.53989 0.835907 3.42119L5.50257 0.754525ZM5.85431 2.0892L1.83333 4.3869V13.5179L5.50257 11.4212C5.69611 11.3106 5.93211 11.3041 6.13148 11.4037L11.1457 13.9108L15.1667 11.6131V2.48214L11.4974 4.57885C11.3039 4.68944 11.0679 4.69599 10.8685 4.59631L5.85431 2.0892Z" fill="#808EA6"/>
    <path fill-rule="evenodd" clip-rule="evenodd" d="M5.83333 0.666687C6.20152 0.666687 6.5 0.965164 6.5 1.33335V12C6.5 12.3682 6.20152 12.6667 5.83333 12.6667C5.46514 12.6667 5.16667 12.3682 5.16667 12V1.33335C5.16667 0.965164 5.46514 0.666687 5.83333 0.666687Z" fill="#808EA6"/>
    <path fill-rule="evenodd" clip-rule="evenodd" d="M11.1667 3.33335C11.5349 3.33335 11.8333 3.63183 11.8333 4.00002V14.6667C11.8333 15.0349 11.5349 15.3334 11.1667 15.3334C10.7985 15.3334 10.5 15.0349 10.5 14.6667V4.00002C10.5 3.63183 10.7985 3.33335 11.1667 3.33335Z" fill="#808EA6"/>
</svg>