<svg width="1" height="1" viewBox="0 0 2 2" fill="none" xmlns="http://www.w3.org/2000/svg">
    <path d="M1.09485 0.593626C1.0947 0.461145 1.04193 0.33413 0.94811 0.240433C0.854292 0.146736 0.727083 0.0940044 0.594377 0.0938009L0.594175 0.0936279L0.593972 0.0938057C0.461455 0.0942153 0.334505 0.147055 0.240946 0.240745C0.147386 0.334435 0.0948493 0.461332 0.0948486 0.593626C0.094848 0.725919 0.147384 0.852816 0.240942 0.946507C0.334501 1.0402 0.46145 1.09304 0.593968 1.09345L0.594175 1.09363L0.594382 1.09345C0.727087 1.09325 0.854295 1.04051 0.948112 0.946816C1.04193 0.853119 1.0947 0.726105 1.09485 0.593626ZM1.01605 0.555177H0.824196C0.816537 0.412742 0.766373 0.281153 0.682158 0.179896C0.770594 0.198792 0.850676 0.245387 0.910734 0.31289C0.970792 0.380393 1.00769 0.465278 1.01605 0.555177V0.555177ZM0.441373 0.632074H0.746986C0.738273 0.770275 0.682987 0.899783 0.59418 0.989842C0.505372 0.899783 0.450082 0.770275 0.441373 0.632074V0.632074ZM0.441373 0.555177C0.450082 0.416976 0.505368 0.287469 0.594175 0.197418C0.682982 0.287473 0.738272 0.416981 0.746981 0.555182L0.441373 0.555177ZM0.5062 0.179896C0.421981 0.281153 0.371822 0.412747 0.364158 0.555177H0.172299C0.18066 0.465278 0.217558 0.380392 0.277617 0.312889C0.337677 0.245385 0.417759 0.198791 0.506196 0.179896H0.5062ZM0.172299 0.632074H0.364154C0.371818 0.774504 0.421977 0.906098 0.506196 1.00736C0.417758 0.988464 0.337675 0.94187 0.277616 0.874365C0.217557 0.806861 0.180659 0.721974 0.172299 0.632074V0.632074ZM0.682149 1.00736C0.766368 0.906098 0.816527 0.774509 0.824191 0.632074H1.01605C1.00769 0.721975 0.970792 0.806862 0.910732 0.874366C0.850671 0.941871 0.770587 0.988465 0.682149 1.00736V1.00736Z" fill="#626262"/>
</svg>
