<svg width="14" height="12" viewBox="0 0 14 12" fill="none" xmlns="http://www.w3.org/2000/svg">
    <path d="M1.66659 3.33333H12.3333V1.33333H1.66659V3.33333ZM8.33325 10.6667V4.66667H5.66659V10.6667H8.33325ZM9.66659 10.6667H12.3333V4.66667H9.66659V10.6667ZM4.33325 10.6667V4.66667H1.66659V10.6667H4.33325ZM0.999919 0H12.9999C13.1767 0 13.3463 0.0702379 13.4713 0.195262C13.5963 0.320286 13.6666 0.489856 13.6666 0.666667V11.3333C13.6666 11.5101 13.5963 11.6797 13.4713 11.8047C13.3463 11.9298 13.1767 12 12.9999 12H0.999919C0.823108 12 0.653538 11.9298 0.528514 11.8047C0.40349 11.6797 0.333252 11.5101 0.333252 11.3333V0.666667C0.333252 0.489856 0.40349 0.320286 0.528514 0.195262C0.653538 0.0702379 0.823108 0 0.999919 0Z" fill="#808EA6"/>
</svg>