<svg width="15" height="17" viewBox="0 0 15 17" fill="none" xmlns="http://www.w3.org/2000/svg">
    <path fill-rule="evenodd" clip-rule="evenodd" d="M0 3.77417C0 3.35996 0.335786 3.02417 0.75 3.02417H14.25C14.6642 3.02417 15 3.35996 15 3.77417C15 4.18838 14.6642 4.52417 14.25 4.52417H0.75C0.335786 4.52417 0 4.18838 0 3.77417Z" fill="#F23D4C"/>
    <path d="M13.5 4.52418L12 4.52418V14.2742C12 14.4731 11.921 14.6639 11.7803 14.8045C11.6397 14.9452 11.4489 15.0242 11.25 15.0242H3.75C3.55109 15.0242 3.36032 14.9452 3.21967 14.8045C3.07902 14.6639 3 14.4731 3 14.2742V4.52418L1.5 4.52418V14.2742C1.5 14.8709 1.73705 15.4432 2.15901 15.8652C2.58097 16.2871 3.15326 16.5242 3.75 16.5242H11.25C11.8467 16.5242 12.419 16.2871 12.841 15.8652C13.2629 15.4432 13.5 14.8709 13.5 14.2742V4.52418Z" fill="#F23D4C"/>
    <path fill-rule="evenodd" clip-rule="evenodd" d="M6 6.77417C6.41421 6.77417 6.75 7.10996 6.75 7.52417V12.0242C6.75 12.4384 6.41421 12.7742 6 12.7742C5.58579 12.7742 5.25 12.4384 5.25 12.0242V7.52417C5.25 7.10996 5.58579 6.77417 6 6.77417Z" fill="#F23D4C"/>
    <path fill-rule="evenodd" clip-rule="evenodd" d="M9 6.77417C9.41421 6.77417 9.75 7.10996 9.75 7.52417V12.0242C9.75 12.4384 9.41421 12.7742 9 12.7742C8.58579 12.7742 8.25 12.4384 8.25 12.0242V7.52417C8.25 7.10996 8.58579 6.77417 9 6.77417Z" fill="#F23D4C"/>
    <path fill-rule="evenodd" clip-rule="evenodd" d="M5.99988 1.5C5.80097 1.5 5.6102 1.57902 5.46955 1.71967C5.3289 1.86032 5.24988 2.05109 5.24988 2.25V3H9.74988V2.25C9.74988 2.05109 9.67088 1.86032 9.53018 1.71967C9.38956 1.57902 9.19879 1.5 8.99988 1.5H5.99988ZM11.2499 3V2.25C11.2499 1.65326 11.0128 1.08097 10.5909 0.65901C10.1689 0.237053 9.59658 0 8.99988 0H5.99988C5.40314 0 4.83085 0.237053 4.40889 0.65901C3.98693 1.08097 3.74988 1.65326 3.74988 2.25V3H5.24988C5.24988 3 9.15314 3 9.74988 3H11.2499Z" fill="#F23D4C"/>
</svg>
